<svg enable-background="new 0 0 100 100" viewBox="0 0 100 125" xmlns="http://www.w3.org/2000/svg"><path d="m43.362 47.888-37.584-40.731c-.713-.742-.654-1.87.059-2.553.742-.713 1.841-.683 2.553.029l38.921 39.544c1.128 1.276 1.009 2.969-.118 3.978-1.1.98-2.821.861-3.831-.267z" fill="#fff" /><path d="m16.376 34.915c-1.068-1.158-1.01-2.879.148-3.948 1.129-1.009 2.85-.92 3.919.178l13.953 15.17c6.026 6.531 9.976 14.724 11.312 23.482 1.603 10.777 11.637 18.17 22.414 16.566 10.746-1.603 18.228-11.697 16.535-22.473-1.217-8.164-7.451-14.725-15.586-16.387-8.729-1.722-16.684-6.027-22.918-12.38l-25.116-25.472c-1.069-1.069-1.009-2.82.06-3.889 1.128-1.099 2.85-1.069 3.889.03l21.286 21.583c6.383 6.531 14.726 10.925 23.75 12.528 11.756 2.137 20.781 11.577 22.325 23.423 1.959 14.962-8.639 28.707-23.602 30.696-15.021 1.93-28.708-8.64-30.727-23.602-1.158-9.114-5.166-17.634-11.341-24.374z" fill="#fff" /><path d="m79.373 66.858c0-7.867-6.353-14.19-14.19-14.19s-14.191 6.323-14.191 14.19c0 7.837 6.354 14.22 14.191 14.22s14.19-6.383 14.19-14.22z" fill="#fff" /></svg>
